<mxfile host="app.diagrams.net" modified="2024-03-15T16:30:00.912Z" agent="Mozilla/5.0 (Windows NT 10.0; Win64; x64) AppleWebKit/537.36 (KHTML, like Gecko) Chrome/122.0.0.0 Safari/537.36" etag="mrmFR7tdIRU6x7FV5Vc7" version="24.0.7" type="device">
  <diagram name="Страница — 1" id="F8F_w47l5aOuxaNozW3X">
    <mxGraphModel dx="1366" dy="703" grid="1" gridSize="10" guides="1" tooltips="1" connect="1" arrows="1" fold="1" page="1" pageScale="1" pageWidth="827" pageHeight="1169" math="0" shadow="0">
      <root>
        <mxCell id="0" />
        <mxCell id="1" parent="0" />
        <mxCell id="n9MGS7RP6fRFhPeKJr_o-3" value="" style="edgeStyle=orthogonalEdgeStyle;rounded=0;orthogonalLoop=1;jettySize=auto;html=1;" edge="1" parent="1" source="n9MGS7RP6fRFhPeKJr_o-1" target="n9MGS7RP6fRFhPeKJr_o-2">
          <mxGeometry relative="1" as="geometry" />
        </mxCell>
        <mxCell id="n9MGS7RP6fRFhPeKJr_o-1" value="sql create table&lt;div&gt;+ app metadata&lt;/div&gt;" style="ellipse;whiteSpace=wrap;html=1;" vertex="1" parent="1">
          <mxGeometry x="310" y="60" width="120" height="80" as="geometry" />
        </mxCell>
        <mxCell id="n9MGS7RP6fRFhPeKJr_o-5" value="" style="edgeStyle=orthogonalEdgeStyle;rounded=0;orthogonalLoop=1;jettySize=auto;html=1;" edge="1" parent="1" source="n9MGS7RP6fRFhPeKJr_o-2" target="n9MGS7RP6fRFhPeKJr_o-4">
          <mxGeometry relative="1" as="geometry" />
        </mxCell>
        <mxCell id="n9MGS7RP6fRFhPeKJr_o-11" style="edgeStyle=orthogonalEdgeStyle;rounded=0;orthogonalLoop=1;jettySize=auto;html=1;exitX=0;exitY=0.5;exitDx=0;exitDy=0;entryX=1;entryY=0.5;entryDx=0;entryDy=0;" edge="1" parent="1" source="n9MGS7RP6fRFhPeKJr_o-2" target="n9MGS7RP6fRFhPeKJr_o-8">
          <mxGeometry relative="1" as="geometry" />
        </mxCell>
        <mxCell id="n9MGS7RP6fRFhPeKJr_o-2" value="sql script parsing" style="whiteSpace=wrap;html=1;" vertex="1" parent="1">
          <mxGeometry x="310" y="230" width="120" height="60" as="geometry" />
        </mxCell>
        <mxCell id="n9MGS7RP6fRFhPeKJr_o-18" style="edgeStyle=orthogonalEdgeStyle;rounded=0;orthogonalLoop=1;jettySize=auto;html=1;" edge="1" parent="1" source="n9MGS7RP6fRFhPeKJr_o-4" target="n9MGS7RP6fRFhPeKJr_o-14">
          <mxGeometry relative="1" as="geometry" />
        </mxCell>
        <mxCell id="n9MGS7RP6fRFhPeKJr_o-22" value="" style="edgeStyle=orthogonalEdgeStyle;rounded=0;orthogonalLoop=1;jettySize=auto;html=1;entryX=0.5;entryY=0;entryDx=0;entryDy=0;" edge="1" parent="1" source="n9MGS7RP6fRFhPeKJr_o-4" target="n9MGS7RP6fRFhPeKJr_o-25">
          <mxGeometry relative="1" as="geometry">
            <mxPoint x="370" y="510" as="targetPoint" />
          </mxGeometry>
        </mxCell>
        <mxCell id="n9MGS7RP6fRFhPeKJr_o-4" value="convert&amp;nbsp;&lt;div&gt;sql data to C# data&amp;nbsp;&lt;/div&gt;" style="whiteSpace=wrap;html=1;" vertex="1" parent="1">
          <mxGeometry x="310" y="370" width="120" height="60" as="geometry" />
        </mxCell>
        <mxCell id="n9MGS7RP6fRFhPeKJr_o-7" value="sql parsing lib" style="swimlane;fontStyle=0;childLayout=stackLayout;horizontal=1;startSize=26;fillColor=none;horizontalStack=0;resizeParent=1;resizeParentMax=0;resizeLast=0;collapsible=1;marginBottom=0;whiteSpace=wrap;html=1;" vertex="1" parent="1">
          <mxGeometry x="50" y="218" width="140" height="104" as="geometry" />
        </mxCell>
        <mxCell id="n9MGS7RP6fRFhPeKJr_o-8" value="+ PostreSql" style="text;strokeColor=none;fillColor=none;align=left;verticalAlign=top;spacingLeft=4;spacingRight=4;overflow=hidden;rotatable=0;points=[[0,0.5],[1,0.5]];portConstraint=eastwest;whiteSpace=wrap;html=1;" vertex="1" parent="n9MGS7RP6fRFhPeKJr_o-7">
          <mxGeometry y="26" width="140" height="26" as="geometry" />
        </mxCell>
        <mxCell id="n9MGS7RP6fRFhPeKJr_o-9" value="+ ms sql server" style="text;strokeColor=none;fillColor=none;align=left;verticalAlign=top;spacingLeft=4;spacingRight=4;overflow=hidden;rotatable=0;points=[[0,0.5],[1,0.5]];portConstraint=eastwest;whiteSpace=wrap;html=1;" vertex="1" parent="n9MGS7RP6fRFhPeKJr_o-7">
          <mxGeometry y="52" width="140" height="26" as="geometry" />
        </mxCell>
        <mxCell id="n9MGS7RP6fRFhPeKJr_o-10" value="+ MySql" style="text;strokeColor=none;fillColor=none;align=left;verticalAlign=top;spacingLeft=4;spacingRight=4;overflow=hidden;rotatable=0;points=[[0,0.5],[1,0.5]];portConstraint=eastwest;whiteSpace=wrap;html=1;" vertex="1" parent="n9MGS7RP6fRFhPeKJr_o-7">
          <mxGeometry y="78" width="140" height="26" as="geometry" />
        </mxCell>
        <mxCell id="n9MGS7RP6fRFhPeKJr_o-12" value="calls" style="text;html=1;align=center;verticalAlign=middle;resizable=0;points=[];autosize=1;strokeColor=none;fillColor=none;" vertex="1" parent="1">
          <mxGeometry x="220" y="230" width="50" height="30" as="geometry" />
        </mxCell>
        <mxCell id="n9MGS7RP6fRFhPeKJr_o-13" style="edgeStyle=orthogonalEdgeStyle;rounded=0;orthogonalLoop=1;jettySize=auto;html=1;entryX=0;entryY=0.75;entryDx=0;entryDy=0;" edge="1" parent="1" source="n9MGS7RP6fRFhPeKJr_o-9" target="n9MGS7RP6fRFhPeKJr_o-2">
          <mxGeometry relative="1" as="geometry" />
        </mxCell>
        <mxCell id="n9MGS7RP6fRFhPeKJr_o-19" style="edgeStyle=orthogonalEdgeStyle;rounded=0;orthogonalLoop=1;jettySize=auto;html=1;exitX=1;exitY=0.75;exitDx=0;exitDy=0;entryX=0;entryY=0.75;entryDx=0;entryDy=0;" edge="1" parent="1" source="n9MGS7RP6fRFhPeKJr_o-14" target="n9MGS7RP6fRFhPeKJr_o-4">
          <mxGeometry relative="1" as="geometry" />
        </mxCell>
        <mxCell id="n9MGS7RP6fRFhPeKJr_o-14" value="C# parsing lib" style="swimlane;fontStyle=0;childLayout=stackLayout;horizontal=1;startSize=26;fillColor=none;horizontalStack=0;resizeParent=1;resizeParentMax=0;resizeLast=0;collapsible=1;marginBottom=0;whiteSpace=wrap;html=1;" vertex="1" parent="1">
          <mxGeometry x="40" y="370" width="140" height="52" as="geometry" />
        </mxCell>
        <mxCell id="n9MGS7RP6fRFhPeKJr_o-41" style="edgeStyle=orthogonalEdgeStyle;rounded=0;orthogonalLoop=1;jettySize=auto;html=1;" edge="1" parent="1" source="n9MGS7RP6fRFhPeKJr_o-25" target="n9MGS7RP6fRFhPeKJr_o-40">
          <mxGeometry relative="1" as="geometry" />
        </mxCell>
        <mxCell id="n9MGS7RP6fRFhPeKJr_o-25" value="Processor" style="swimlane;fontStyle=0;childLayout=stackLayout;horizontal=1;startSize=26;fillColor=none;horizontalStack=0;resizeParent=1;resizeParentMax=0;resizeLast=0;collapsible=1;marginBottom=0;whiteSpace=wrap;html=1;" vertex="1" parent="1">
          <mxGeometry x="300" y="520" width="140" height="80" as="geometry" />
        </mxCell>
        <mxCell id="n9MGS7RP6fRFhPeKJr_o-26" value="defines command to run" style="text;strokeColor=none;fillColor=none;align=left;verticalAlign=top;spacingLeft=4;spacingRight=4;overflow=hidden;rotatable=0;points=[[0,0.5],[1,0.5]];portConstraint=eastwest;whiteSpace=wrap;html=1;" vertex="1" parent="n9MGS7RP6fRFhPeKJr_o-25">
          <mxGeometry y="26" width="140" height="26" as="geometry" />
        </mxCell>
        <mxCell id="n9MGS7RP6fRFhPeKJr_o-27" value="runs gen commands" style="text;strokeColor=none;fillColor=none;align=left;verticalAlign=top;spacingLeft=4;spacingRight=4;overflow=hidden;rotatable=0;points=[[0,0.5],[1,0.5]];portConstraint=eastwest;whiteSpace=wrap;html=1;" vertex="1" parent="n9MGS7RP6fRFhPeKJr_o-25">
          <mxGeometry y="52" width="140" height="28" as="geometry" />
        </mxCell>
        <mxCell id="n9MGS7RP6fRFhPeKJr_o-32" style="edgeStyle=orthogonalEdgeStyle;rounded=0;orthogonalLoop=1;jettySize=auto;html=1;entryX=0.25;entryY=1;entryDx=0;entryDy=0;" edge="1" parent="1" source="n9MGS7RP6fRFhPeKJr_o-29" target="n9MGS7RP6fRFhPeKJr_o-31">
          <mxGeometry relative="1" as="geometry" />
        </mxCell>
        <mxCell id="n9MGS7RP6fRFhPeKJr_o-39" style="edgeStyle=orthogonalEdgeStyle;rounded=0;orthogonalLoop=1;jettySize=auto;html=1;exitX=0;exitY=0.75;exitDx=0;exitDy=0;entryX=1;entryY=0.5;entryDx=0;entryDy=0;" edge="1" parent="1" source="n9MGS7RP6fRFhPeKJr_o-29" target="n9MGS7RP6fRFhPeKJr_o-27">
          <mxGeometry relative="1" as="geometry" />
        </mxCell>
        <mxCell id="n9MGS7RP6fRFhPeKJr_o-29" value="Commands" style="whiteSpace=wrap;html=1;aspect=fixed;" vertex="1" parent="1">
          <mxGeometry x="570" y="520" width="80" height="80" as="geometry" />
        </mxCell>
        <mxCell id="n9MGS7RP6fRFhPeKJr_o-30" style="edgeStyle=orthogonalEdgeStyle;rounded=0;orthogonalLoop=1;jettySize=auto;html=1;entryX=0;entryY=0.25;entryDx=0;entryDy=0;" edge="1" parent="1" source="n9MGS7RP6fRFhPeKJr_o-26" target="n9MGS7RP6fRFhPeKJr_o-29">
          <mxGeometry relative="1" as="geometry" />
        </mxCell>
        <mxCell id="n9MGS7RP6fRFhPeKJr_o-35" style="edgeStyle=orthogonalEdgeStyle;rounded=0;orthogonalLoop=1;jettySize=auto;html=1;entryX=0;entryY=0.25;entryDx=0;entryDy=0;" edge="1" parent="1" source="n9MGS7RP6fRFhPeKJr_o-31" target="n9MGS7RP6fRFhPeKJr_o-34">
          <mxGeometry relative="1" as="geometry" />
        </mxCell>
        <mxCell id="n9MGS7RP6fRFhPeKJr_o-31" value="Templates" style="whiteSpace=wrap;html=1;aspect=fixed;" vertex="1" parent="1">
          <mxGeometry x="600" y="370" width="80" height="80" as="geometry" />
        </mxCell>
        <mxCell id="n9MGS7RP6fRFhPeKJr_o-33" value="data" style="text;html=1;align=center;verticalAlign=middle;resizable=0;points=[];autosize=1;strokeColor=none;fillColor=none;" vertex="1" parent="1">
          <mxGeometry x="550" y="470" width="50" height="30" as="geometry" />
        </mxCell>
        <mxCell id="n9MGS7RP6fRFhPeKJr_o-37" style="edgeStyle=orthogonalEdgeStyle;rounded=0;orthogonalLoop=1;jettySize=auto;html=1;entryX=1;entryY=0.75;entryDx=0;entryDy=0;" edge="1" parent="1" source="n9MGS7RP6fRFhPeKJr_o-34" target="n9MGS7RP6fRFhPeKJr_o-29">
          <mxGeometry relative="1" as="geometry" />
        </mxCell>
        <mxCell id="n9MGS7RP6fRFhPeKJr_o-34" value="template&lt;div&gt;parser&lt;/div&gt;" style="whiteSpace=wrap;html=1;aspect=fixed;" vertex="1" parent="1">
          <mxGeometry x="740" y="422" width="80" height="80" as="geometry" />
        </mxCell>
        <mxCell id="n9MGS7RP6fRFhPeKJr_o-38" value="Template Solution" style="whiteSpace=wrap;html=1;aspect=fixed;" vertex="1" parent="1">
          <mxGeometry x="700" y="60" width="160" height="160" as="geometry" />
        </mxCell>
        <mxCell id="n9MGS7RP6fRFhPeKJr_o-40" value="returns zip archive" style="ellipse;whiteSpace=wrap;html=1;" vertex="1" parent="1">
          <mxGeometry x="310" y="670" width="120" height="80" as="geometry" />
        </mxCell>
        <mxCell id="n9MGS7RP6fRFhPeKJr_o-43" value="Create CRUD app with filter logic" style="text;html=1;align=center;verticalAlign=middle;resizable=0;points=[];autosize=1;strokeColor=#d79b00;fillColor=#ffe6cc;" vertex="1" parent="1">
          <mxGeometry x="1000" y="110" width="200" height="30" as="geometry" />
        </mxCell>
        <mxCell id="n9MGS7RP6fRFhPeKJr_o-45" value="Add User Auth support ??" style="text;html=1;align=center;verticalAlign=middle;resizable=0;points=[];autosize=1;strokeColor=#d79b00;fillColor=#ffe6cc;" vertex="1" parent="1">
          <mxGeometry x="980" y="310" width="160" height="30" as="geometry" />
        </mxCell>
        <mxCell id="n9MGS7RP6fRFhPeKJr_o-46" value="Add Constrains as combined PK, FK, one-to-one/one-to-many,&amp;nbsp;&lt;div&gt;string, number constrains, extend data types, multiple PK types&lt;/div&gt;" style="text;html=1;align=center;verticalAlign=middle;resizable=0;points=[];autosize=1;strokeColor=#d79b00;fillColor=#ffe6cc;" vertex="1" parent="1">
          <mxGeometry x="910" y="230" width="360" height="40" as="geometry" />
        </mxCell>
        <mxCell id="n9MGS7RP6fRFhPeKJr_o-49" value="Service" style="text;html=1;align=center;verticalAlign=middle;resizable=0;points=[];autosize=1;strokeColor=#b85450;fillColor=#f8cecc;" vertex="1" parent="1">
          <mxGeometry x="1020" y="188" width="60" height="30" as="geometry" />
        </mxCell>
        <mxCell id="n9MGS7RP6fRFhPeKJr_o-50" value="MVP" style="text;html=1;align=center;verticalAlign=middle;resizable=0;points=[];autosize=1;strokeColor=#b85450;fillColor=#f8cecc;" vertex="1" parent="1">
          <mxGeometry x="1025" y="68" width="50" height="30" as="geometry" />
        </mxCell>
        <mxCell id="n9MGS7RP6fRFhPeKJr_o-51" value="Platform" style="text;html=1;align=center;verticalAlign=middle;resizable=0;points=[];autosize=1;strokeColor=#b85450;fillColor=#f8cecc;" vertex="1" parent="1">
          <mxGeometry x="1405" y="188" width="70" height="30" as="geometry" />
        </mxCell>
        <mxCell id="n9MGS7RP6fRFhPeKJr_o-52" value="Save Generated apps in db&lt;div&gt;with Update on them&lt;/div&gt;" style="text;html=1;align=center;verticalAlign=middle;resizable=0;points=[];autosize=1;strokeColor=#d79b00;fillColor=#ffe6cc;" vertex="1" parent="1">
          <mxGeometry x="1355" y="230" width="170" height="40" as="geometry" />
        </mxCell>
        <mxCell id="n9MGS7RP6fRFhPeKJr_o-53" value="Add User/GenApp relation" style="text;html=1;align=center;verticalAlign=middle;resizable=0;points=[];autosize=1;strokeColor=#d79b00;fillColor=#ffe6cc;" vertex="1" parent="1">
          <mxGeometry x="1355" y="300" width="160" height="30" as="geometry" />
        </mxCell>
      </root>
    </mxGraphModel>
  </diagram>
</mxfile>
